<mxfile host="65bd71144e" scale="1.2" border="0">
    <diagram id="Aivqml-ADPJbA_GyeIOO" name="Page-1">
        <mxGraphModel dx="932" dy="372" grid="1" gridSize="10" guides="1" tooltips="1" connect="1" arrows="1" fold="1" page="1" pageScale="1" pageWidth="827" pageHeight="1169" background="#FFFFFF" math="0" shadow="0">
            <root>
                <mxCell id="0"/>
                <mxCell id="1" parent="0"/>
                <mxCell id="655" value="" style="edgeStyle=orthogonalEdgeStyle;rounded=0;orthogonalLoop=1;jettySize=auto;html=1;entryX=0.5;entryY=0;entryDx=0;entryDy=0;fillColor=#FFFFFF;strokeColor=#000000;fontColor=#000000;labelBackgroundColor=none;" edge="1" parent="1" source="656" target="659">
                    <mxGeometry relative="1" as="geometry">
                        <mxPoint x="380.02857142857135" y="150" as="targetPoint"/>
                    </mxGeometry>
                </mxCell>
                <mxCell id="656" value="start" style="ellipse;whiteSpace=wrap;html=1;fillColor=#CCFFCC;fontSize=11;strokeColor=#000000;fontColor=#000000;rounded=0;labelBackgroundColor=none;endArrow=classic;" vertex="1" parent="1">
                    <mxGeometry x="340" y="100" width="80" height="40" as="geometry"/>
                </mxCell>
                <mxCell id="657" value="&lt;div&gt;FindMinSumRowNumber&lt;/div&gt;" style="shape=process;whiteSpace=wrap;html=1;backgroundOutline=1;size=0.029411764705882353;fillColor=#CCE5FF;fontSize=11;strokeColor=#000000;fontColor=#000000;rounded=0;labelBackgroundColor=none;endArrow=classic;" vertex="1" parent="1">
                    <mxGeometry x="290" y="50" width="180" height="30" as="geometry"/>
                </mxCell>
                <mxCell id="658" value="" style="edgeStyle=orthogonalEdgeStyle;rounded=0;orthogonalLoop=1;jettySize=auto;html=1;fillColor=#FFFFFF;strokeColor=#000000;fontColor=#000000;labelBackgroundColor=none;" edge="1" parent="1" source="659" target="660">
                    <mxGeometry relative="1" as="geometry"/>
                </mxCell>
                <mxCell id="659" value="arr" style="shape=parallelogram;perimeter=parallelogramPerimeter;whiteSpace=wrap;html=1;fixedSize=1;fillColor=#FFFFCC;fontSize=11;strokeColor=#000000;fontColor=#000000;rounded=0;labelBackgroundColor=none;endArrow=classic;" vertex="1" parent="1">
                    <mxGeometry x="300" y="160" width="160" height="40" as="geometry"/>
                </mxCell>
                <mxCell id="660" value="minsSumRow = 0&lt;br&gt;MinSumRowNumber = 0&lt;br&gt;rows = Dimension1(arr)&lt;br&gt;columns = Dimension2(arr)" style="whiteSpace=wrap;html=1;fillColor=#FFFFFF;fontSize=11;strokeColor=#000000;fontColor=#000000;rounded=0;labelBackgroundColor=none;endArrow=classic;" vertex="1" parent="1">
                    <mxGeometry x="300" y="220" width="160" height="70" as="geometry"/>
                </mxCell>
                <mxCell id="661" style="edgeStyle=none;rounded=0;orthogonalLoop=1;jettySize=auto;html=1;exitX=1;exitY=0.5;exitDx=0;exitDy=0;fillColor=#FFFFFF;strokeColor=#000000;fontColor=#000000;labelBackgroundColor=none;" edge="1" parent="1" source="663" target="672">
                    <mxGeometry relative="1" as="geometry">
                        <Array as="points">
                            <mxPoint x="630" y="333"/>
                        </Array>
                    </mxGeometry>
                </mxCell>
                <mxCell id="662" value="" style="edgeStyle=none;rounded=0;orthogonalLoop=1;jettySize=auto;html=1;endArrow=classic;endFill=1;fillColor=#FFFFFF;strokeColor=#000000;fontColor=#000000;labelBackgroundColor=none;" edge="1" parent="1" source="663" target="689">
                    <mxGeometry relative="1" as="geometry"/>
                </mxCell>
                <mxCell id="663" value="i = 0, rows&amp;nbsp;- 1, 1" style="shape=hexagon;perimeter=hexagonPerimeter2;whiteSpace=wrap;html=1;fixedSize=1;fontSize=11;rounded=0;fillColor=#FFFFFF;strokeColor=#000000;fontColor=#000000;labelBackgroundColor=none;endArrow=classic;" vertex="1" parent="1">
                    <mxGeometry x="310" y="312.5" width="140" height="40" as="geometry"/>
                </mxCell>
                <mxCell id="664" value="" style="edgeStyle=none;rounded=0;orthogonalLoop=1;jettySize=auto;html=1;endArrow=classic;endFill=1;fillColor=#FFFFFF;strokeColor=#000000;fontColor=#000000;labelBackgroundColor=none;" edge="1" parent="1" source="666" target="687">
                    <mxGeometry relative="1" as="geometry"/>
                </mxCell>
                <mxCell id="665" style="edgeStyle=none;rounded=0;orthogonalLoop=1;jettySize=auto;html=1;exitX=1;exitY=0.5;exitDx=0;exitDy=0;entryX=0.5;entryY=0;entryDx=0;entryDy=0;endArrow=classic;endFill=1;fillColor=#FFFFFF;strokeColor=#000000;fontColor=#000000;labelBackgroundColor=none;" edge="1" parent="1" source="666" target="677">
                    <mxGeometry relative="1" as="geometry">
                        <Array as="points">
                            <mxPoint x="530" y="458"/>
                            <mxPoint x="530" y="580"/>
                            <mxPoint x="380" y="580"/>
                        </Array>
                    </mxGeometry>
                </mxCell>
                <mxCell id="666" value="j = 0, columns&amp;nbsp;- 1, 1" style="shape=hexagon;perimeter=hexagonPerimeter2;whiteSpace=wrap;html=1;fixedSize=1;fontSize=11;rounded=0;fillColor=#FFFFFF;strokeColor=#000000;fontColor=#000000;labelBackgroundColor=none;endArrow=classic;" vertex="1" parent="1">
                    <mxGeometry x="310" y="437.5" width="140" height="40" as="geometry"/>
                </mxCell>
                <mxCell id="667" style="edgeStyle=none;orthogonalLoop=1;jettySize=auto;html=1;entryX=0;entryY=0.5;entryDx=0;entryDy=0;fontSize=11;rounded=0;exitX=0.5;exitY=1;exitDx=0;exitDy=0;fillColor=#FFFFFF;strokeColor=#000000;fontColor=#000000;labelBackgroundColor=none;" edge="1" parent="1" source="687" target="666">
                    <mxGeometry relative="1" as="geometry">
                        <Array as="points">
                            <mxPoint x="380" y="560"/>
                            <mxPoint x="260" y="560"/>
                            <mxPoint x="260" y="458"/>
                        </Array>
                        <mxPoint x="380" y="680" as="sourcePoint"/>
                    </mxGeometry>
                </mxCell>
                <mxCell id="668" value="" style="edgeStyle=none;rounded=0;orthogonalLoop=1;jettySize=auto;html=1;entryX=0.5;entryY=0;entryDx=0;entryDy=0;exitX=0.5;exitY=1;exitDx=0;exitDy=0;fillColor=#FFFFFF;strokeColor=#000000;fontColor=#000000;labelBackgroundColor=none;" edge="1" parent="1" source="660" target="663">
                    <mxGeometry relative="1" as="geometry">
                        <mxPoint x="440" y="310" as="targetPoint"/>
                        <mxPoint x="380" y="300" as="sourcePoint"/>
                    </mxGeometry>
                </mxCell>
                <mxCell id="669" value="end" style="ellipse;whiteSpace=wrap;html=1;fillColor=#FFCCCC;rounded=0;fontSize=11;strokeColor=#000000;fontColor=#000000;labelBackgroundColor=none;endArrow=classic;" vertex="1" parent="1">
                    <mxGeometry x="590" y="437.5" width="80" height="40" as="geometry"/>
                </mxCell>
                <mxCell id="670" value="метод находит строку с наименьшей суммой элементов." style="rounded=0;whiteSpace=wrap;html=1;fillColor=#CCCCCC;fontSize=11;strokeColor=#000000;fontColor=#000000;labelBackgroundColor=none;endArrow=classic;" vertex="1" parent="1">
                    <mxGeometry x="230" y="10" width="300" height="30" as="geometry"/>
                </mxCell>
                <mxCell id="671" value="" style="edgeStyle=none;rounded=0;orthogonalLoop=1;jettySize=auto;html=1;endArrow=classic;endFill=1;entryX=0.5;entryY=0;entryDx=0;entryDy=0;fillColor=#FFFFFF;strokeColor=#000000;fontColor=#000000;labelBackgroundColor=none;" edge="1" parent="1" source="672" target="669">
                    <mxGeometry relative="1" as="geometry"/>
                </mxCell>
                <mxCell id="672" value="minSumRowNumber&amp;nbsp;" style="shape=parallelogram;perimeter=parallelogramPerimeter;whiteSpace=wrap;html=1;fixedSize=1;fillColor=#FFFFCC;fontSize=11;strokeColor=#000000;fontColor=#000000;rounded=0;labelBackgroundColor=none;endArrow=classic;" vertex="1" parent="1">
                    <mxGeometry x="550" y="370" width="160" height="30" as="geometry"/>
                </mxCell>
                <mxCell id="673" style="edgeStyle=orthogonalEdgeStyle;rounded=0;orthogonalLoop=1;jettySize=auto;html=1;exitX=1;exitY=0.5;exitDx=0;exitDy=0;endArrow=classic;endFill=1;fillColor=#FFFFFF;strokeColor=#000000;fontColor=#000000;labelBackgroundColor=none;" edge="1" parent="1" source="677">
                    <mxGeometry relative="1" as="geometry">
                        <mxPoint x="380" y="770" as="targetPoint"/>
                        <Array as="points">
                            <mxPoint x="490" y="649"/>
                            <mxPoint x="490" y="770"/>
                        </Array>
                    </mxGeometry>
                </mxCell>
                <mxCell id="674" value="NO" style="edgeLabel;html=1;align=center;verticalAlign=middle;resizable=0;points=[];fontColor=#000000;labelBackgroundColor=#FFFFFF;" vertex="1" connectable="0" parent="673">
                    <mxGeometry x="-0.6065" relative="1" as="geometry">
                        <mxPoint x="-20" y="-13" as="offset"/>
                    </mxGeometry>
                </mxCell>
                <mxCell id="675" value="" style="edgeStyle=orthogonalEdgeStyle;rounded=0;orthogonalLoop=1;jettySize=auto;html=1;fillColor=#FFFFFF;strokeColor=#000000;fontColor=#000000;labelBackgroundColor=none;" edge="1" parent="1" source="677" target="684">
                    <mxGeometry relative="1" as="geometry"/>
                </mxCell>
                <mxCell id="676" value="YES" style="edgeLabel;html=1;align=center;verticalAlign=middle;resizable=0;points=[];fontColor=#000000;labelBackgroundColor=#FFFFFF;" vertex="1" connectable="0" parent="675">
                    <mxGeometry x="-0.7657" relative="1" as="geometry">
                        <mxPoint y="14" as="offset"/>
                    </mxGeometry>
                </mxCell>
                <mxCell id="677" value="i = 0" style="rhombus;whiteSpace=wrap;html=1;rounded=0;fontSize=11;fillColor=#FFFFFF;strokeColor=#000000;fontColor=#000000;labelBackgroundColor=none;endArrow=classic;" vertex="1" parent="1">
                    <mxGeometry x="310" y="630" width="140" height="37.5" as="geometry"/>
                </mxCell>
                <mxCell id="678" value="" style="edgeStyle=orthogonalEdgeStyle;rounded=0;orthogonalLoop=1;jettySize=auto;html=1;fillColor=#FFFFFF;strokeColor=#000000;fontColor=#000000;labelBackgroundColor=none;" edge="1" parent="1" source="682" target="686">
                    <mxGeometry relative="1" as="geometry"/>
                </mxCell>
                <mxCell id="679" value="YES" style="edgeLabel;html=1;align=center;verticalAlign=middle;resizable=0;points=[];fontColor=#000000;labelBackgroundColor=#FFFFFF;" vertex="1" connectable="0" parent="678">
                    <mxGeometry x="-0.7224" y="-1" relative="1" as="geometry">
                        <mxPoint x="1" y="4" as="offset"/>
                    </mxGeometry>
                </mxCell>
                <mxCell id="680" value="" style="edgeStyle=orthogonalEdgeStyle;rounded=0;orthogonalLoop=1;jettySize=auto;html=1;endArrow=oval;endFill=1;fillColor=#FFFFFF;strokeColor=#000000;fontColor=#000000;labelBackgroundColor=none;" edge="1" parent="1" source="682">
                    <mxGeometry relative="1" as="geometry">
                        <mxPoint x="380" y="950" as="targetPoint"/>
                        <Array as="points">
                            <mxPoint x="510" y="819"/>
                            <mxPoint x="510" y="950"/>
                        </Array>
                    </mxGeometry>
                </mxCell>
                <mxCell id="681" value="NO" style="edgeLabel;html=1;align=center;verticalAlign=middle;resizable=0;points=[];fontColor=#000000;labelBackgroundColor=#FFFFFF;" vertex="1" connectable="0" parent="680">
                    <mxGeometry x="-0.1842" y="-1" relative="1" as="geometry">
                        <mxPoint x="-19" y="-83" as="offset"/>
                    </mxGeometry>
                </mxCell>
                <mxCell id="682" value="minSumRow &amp;gt; rowSum" style="rhombus;whiteSpace=wrap;html=1;rounded=0;fontSize=11;fillColor=#FFFFFF;strokeColor=#000000;fontColor=#000000;labelBackgroundColor=none;endArrow=classic;" vertex="1" parent="1">
                    <mxGeometry x="290" y="790" width="180" height="57.5" as="geometry"/>
                </mxCell>
                <mxCell id="683" style="edgeStyle=orthogonalEdgeStyle;rounded=0;orthogonalLoop=1;jettySize=auto;html=1;exitX=0.5;exitY=1;exitDx=0;exitDy=0;entryX=0.5;entryY=0;entryDx=0;entryDy=0;fillColor=#FFFFFF;strokeColor=#000000;fontColor=#000000;labelBackgroundColor=none;" edge="1" parent="1" source="684" target="682">
                    <mxGeometry relative="1" as="geometry">
                        <mxPoint x="380" y="810" as="targetPoint"/>
                    </mxGeometry>
                </mxCell>
                <mxCell id="684" value="minSumRow = rowSum" style="whiteSpace=wrap;html=1;rounded=0;fontSize=11;fillColor=#FFFFFF;strokeColor=#000000;fontColor=#000000;labelBackgroundColor=none;endArrow=classic;" vertex="1" parent="1">
                    <mxGeometry x="300" y="715" width="160" height="31.25" as="geometry"/>
                </mxCell>
                <mxCell id="685" style="edgeStyle=orthogonalEdgeStyle;rounded=0;orthogonalLoop=1;jettySize=auto;html=1;exitX=0.5;exitY=1;exitDx=0;exitDy=0;endArrow=classic;endFill=1;entryX=0;entryY=0.5;entryDx=0;entryDy=0;fillColor=#FFFFFF;strokeColor=#000000;fontColor=#000000;labelBackgroundColor=none;" edge="1" parent="1" source="686" target="663">
                    <mxGeometry relative="1" as="geometry">
                        <mxPoint x="280" y="340" as="targetPoint"/>
                        <Array as="points">
                            <mxPoint x="380" y="950"/>
                            <mxPoint x="210" y="950"/>
                            <mxPoint x="210" y="333"/>
                            <mxPoint x="310" y="333"/>
                        </Array>
                    </mxGeometry>
                </mxCell>
                <mxCell id="686" value="minSumRow = rowSum&lt;br&gt;minSumRowNumber = i" style="whiteSpace=wrap;html=1;rounded=0;fontSize=11;fillColor=#FFFFFF;strokeColor=#000000;fontColor=#000000;labelBackgroundColor=none;endArrow=classic;" vertex="1" parent="1">
                    <mxGeometry x="310" y="880.62" width="140" height="49.38" as="geometry"/>
                </mxCell>
                <mxCell id="687" value="rowSum = rowSum + arr[i, j]" style="whiteSpace=wrap;html=1;rounded=0;fontSize=11;fillColor=#FFFFFF;strokeColor=#000000;fontColor=#000000;labelBackgroundColor=none;endArrow=classic;" vertex="1" parent="1">
                    <mxGeometry x="280" y="500" width="200" height="40" as="geometry"/>
                </mxCell>
                <mxCell id="688" value="" style="edgeStyle=none;rounded=0;orthogonalLoop=1;jettySize=auto;html=1;endArrow=classic;endFill=1;entryX=0.5;entryY=0;entryDx=0;entryDy=0;fillColor=#FFFFFF;strokeColor=#000000;fontColor=#000000;labelBackgroundColor=none;" edge="1" parent="1" source="689" target="666">
                    <mxGeometry relative="1" as="geometry"/>
                </mxCell>
                <mxCell id="689" value="rowSum = 0" style="whiteSpace=wrap;html=1;rounded=0;fontSize=11;fillColor=#FFFFFF;strokeColor=#000000;fontColor=#000000;labelBackgroundColor=none;endArrow=classic;" vertex="1" parent="1">
                    <mxGeometry x="325" y="380" width="110" height="27.5" as="geometry"/>
                </mxCell>
            </root>
        </mxGraphModel>
    </diagram>
</mxfile>